<svg width="20" height="21" viewBox="0 0 20 21" fill="none" xmlns="http://www.w3.org/2000/svg">
<path d="M17.7906 2.89414C14.8306 -0.0558593 10.0306 -0.0558593 7.09063 2.89414C5.02063 4.94414 4.40063 7.89414 5.20063 10.4941L0.500635 15.1941C0.170635 15.5341 -0.0593654 16.2041 0.0106346 16.6841L0.310635 18.8641C0.420635 19.5841 1.09063 20.2641 1.81063 20.3641L3.99063 20.6641C4.47063 20.7341 5.14063 20.5141 5.48063 20.1641L6.30063 19.3441C6.50063 19.1541 6.50063 18.8341 6.30063 18.6341L4.36063 16.6941C4.07063 16.4041 4.07063 15.9241 4.36063 15.6341C4.65063 15.3441 5.13063 15.3441 5.42063 15.6341L7.37063 17.5841C7.56063 17.7741 7.88063 17.7741 8.07063 17.5841L10.1906 15.4741C12.7806 16.2841 15.7306 15.6541 17.7906 13.6041C20.7406 10.6541 20.7406 5.84414 17.7906 2.89414ZM12.5006 10.6741C11.1206 10.6741 10.0006 9.55414 10.0006 8.17414C10.0006 6.79414 11.1206 5.67414 12.5006 5.67414C13.8806 5.67414 15.0006 6.79414 15.0006 8.17414C15.0006 9.55414 13.8806 10.6741 12.5006 10.6741Z" fill="#003366"/>
</svg>
