<svg width="24" height="25" viewBox="0 0 24 25" fill="none" xmlns="http://www.w3.org/2000/svg">
<path d="M3.16992 8.11426L11.9999 13.2242L20.7699 8.14423" stroke="white" stroke-width="1.5" stroke-linecap="round" stroke-linejoin="round"/>
<path d="M12 22.2844V13.2144" stroke="white" stroke-width="1.5" stroke-linecap="round" stroke-linejoin="round"/>
<path d="M9.92963 3.15432L4.58963 6.12435C3.37963 6.79435 2.38965 8.47433 2.38965 9.85433V15.5044C2.38965 16.8844 3.37963 18.5643 4.58963 19.2343L9.92963 22.2044C11.0696 22.8344 12.9396 22.8344 14.0796 22.2044L19.4196 19.2343C20.6296 18.5643 21.6196 16.8844 21.6196 15.5044V9.85433C21.6196 8.47433 20.6296 6.79435 19.4196 6.12435L14.0796 3.15432C12.9296 2.51432 11.0696 2.51432 9.92963 3.15432Z" stroke="white" stroke-width="1.5" stroke-linecap="round" stroke-linejoin="round"/>
<path d="M16.9998 13.9144V10.2545L7.50977 4.77441" stroke="white" stroke-width="1.5" stroke-linecap="round" stroke-linejoin="round"/>
</svg>
