<svg width="24" height="25" viewBox="0 0 24 25" fill="none" xmlns="http://www.w3.org/2000/svg">
<path d="M20.1004 7.61383C20.1004 8.15383 19.8104 8.64383 19.3504 8.89383L17.6104 9.83383L16.1304 10.6238L13.0604 12.2838C12.7304 12.4638 12.3704 12.5538 12.0004 12.5538C11.6304 12.5538 11.2704 12.4638 10.9404 12.2838L4.65039 8.89383C4.19039 8.64383 3.90039 8.15383 3.90039 7.61383C3.90039 7.07383 4.19039 6.58383 4.65039 6.33383L6.62039 5.27383L8.19039 4.42383L10.9404 2.94383C11.6004 2.58383 12.4004 2.58383 13.0604 2.94383L19.3504 6.33383C19.8104 6.58383 20.1004 7.07383 20.1004 7.61383Z" fill="#003366"/>
<path d="M9.89973 13.464L4.04973 10.544C3.59973 10.314 3.07973 10.344 2.64973 10.604C2.21973 10.864 1.96973 11.324 1.96973 11.824V17.354C1.96973 18.314 2.49973 19.174 3.35973 19.604L9.20973 22.524C9.40973 22.624 9.62973 22.674 9.84973 22.674C10.1097 22.674 10.3697 22.604 10.5997 22.454C11.0297 22.194 11.2797 21.734 11.2797 21.234V15.704C11.2897 14.754 10.7597 13.894 9.89973 13.464Z" fill="#003366"/>
<path d="M22.03 11.8235V17.3535C22.03 18.3035 21.5 19.1635 20.64 19.5935L14.79 22.5235C14.59 22.6235 14.37 22.6735 14.15 22.6735C13.89 22.6735 13.63 22.6035 13.39 22.4535C12.97 22.1935 12.71 21.7335 12.71 21.2335V15.7135C12.71 14.7535 13.24 13.8935 14.1 13.4635L16.25 12.3935L17.75 11.6435L19.95 10.5435C20.4 10.3135 20.92 10.3335 21.35 10.6035C21.77 10.8635 22.03 11.3235 22.03 11.8235Z" fill="#003366"/>
<path d="M17.6101 9.83383L16.1301 10.6238L6.62012 5.27383L8.19012 4.42383L17.3701 9.60383C17.4701 9.66383 17.5501 9.74383 17.6101 9.83383Z" fill="#003366"/>
<path d="M17.75 11.6436V13.9136C17.75 14.3236 17.41 14.6636 17 14.6636C16.59 14.6636 16.25 14.3236 16.25 13.9136V12.3936L17.75 11.6436Z" fill="#003366"/>
</svg>
