<svg width="24" height="24" viewBox="0 0 24 24" fill="none" xmlns="http://www.w3.org/2000/svg">
<path d="M17.02 2.88C16.54 2.4 15.58 2 14.9 2H9.1C8.42 2 7.46 2.4 6.98 2.88L2.88 6.98C2.4 7.46 2 8.42 2 9.1V14.9C2 15.58 2.4 16.54 2.88 17.02L4.41 18.55L18.55 4.41L17.02 2.88Z" fill="#E70C10"/>
<path d="M21.1207 6.98022L19.6107 5.47021L5.4707 19.6102L6.9807 21.1202C7.4607 21.6002 8.4207 22.0002 9.1007 22.0002H14.9007C15.5807 22.0002 16.5407 21.6002 17.0207 21.1202L21.1207 17.0202C21.6007 16.5402 22.0007 15.5802 22.0007 14.9002V9.10022C22.0007 8.42022 21.6007 7.46022 21.1207 6.98022Z" fill="#E70C10"/>
<path d="M2.49094 20.4698C2.20094 20.7598 2.20094 21.2398 2.49094 21.5298C2.64094 21.6798 2.83094 21.7498 3.02094 21.7498C3.21094 21.7498 3.40094 21.6798 3.55094 21.5298L5.47094 19.6098L4.41094 18.5498L2.49094 20.4698Z" fill="#E70C10"/>
<path d="M21.5308 3.54996C21.8208 3.25996 21.8208 2.77996 21.5308 2.48996C21.2408 2.19996 20.7608 2.19996 20.4708 2.48996L18.5508 4.40996L19.6108 5.46996L21.5308 3.54996Z" fill="#E70C10"/>
</svg>
