<svg width="24" height="25" viewBox="0 0 24 25" fill="none" xmlns="http://www.w3.org/2000/svg">
<path d="M19.7897 15.6041C17.7297 17.6541 14.7797 18.2841 12.1897 17.4741L7.47966 22.1741C7.13966 22.5241 6.46966 22.7341 5.98966 22.6641L3.80966 22.3641C3.08966 22.2641 2.41966 21.5841 2.30966 20.8641L2.00966 18.6841C1.93966 18.2041 2.16966 17.5341 2.49966 17.1941L7.19966 12.4941C6.39966 9.89414 7.01966 6.94414 9.07966 4.89414C12.0297 1.94414 16.8197 1.94414 19.7797 4.89414C22.7397 7.84414 22.7397 12.6541 19.7897 15.6041Z" stroke="white" stroke-width="1.5" stroke-miterlimit="10" stroke-linecap="round" stroke-linejoin="round"/>
<path d="M6.88965 18.1646L9.18965 20.4646" stroke="white" stroke-width="1.5" stroke-miterlimit="10" stroke-linecap="round" stroke-linejoin="round"/>
<path d="M14.5 11.6743C15.3284 11.6743 16 11.0027 16 10.1743C16 9.34589 15.3284 8.67432 14.5 8.67432C13.6716 8.67432 13 9.34589 13 10.1743C13 11.0027 13.6716 11.6743 14.5 11.6743Z" stroke="white" stroke-width="1.5" stroke-linecap="round" stroke-linejoin="round"/>
</svg>
