<svg width="24" height="25" viewBox="0 0 24 25" fill="none" xmlns="http://www.w3.org/2000/svg">
<path d="M19.3697 5.56443L13.5097 2.95443C12.6497 2.57443 11.3497 2.57443 10.4897 2.95443L4.62969 5.56443C3.14969 6.22443 2.92969 7.12443 2.92969 7.60443C2.92969 8.08443 3.14969 8.98443 4.62969 9.64443L10.4897 12.2544C10.9197 12.4444 11.4597 12.5444 11.9997 12.5444C12.5397 12.5444 13.0797 12.4444 13.5097 12.2544L19.3697 9.64443C20.8497 8.98443 21.0697 8.08443 21.0697 7.60443C21.0697 7.12443 20.8597 6.22443 19.3697 5.56443Z" fill="#003366"/>
<path d="M12.0003 17.7143C11.6203 17.7143 11.2403 17.6343 10.8903 17.4843L4.15031 14.4843C3.12031 14.0243 2.32031 12.7943 2.32031 11.6643C2.32031 11.2543 2.65031 10.9243 3.06031 10.9243C3.47031 10.9243 3.80031 11.2543 3.80031 11.6643C3.80031 12.2043 4.25031 12.9043 4.75031 13.1243L11.4903 16.1243C11.8103 16.2643 12.1803 16.2643 12.5003 16.1243L19.2403 13.1243C19.7403 12.9043 20.1903 12.2143 20.1903 11.6643C20.1903 11.2543 20.5203 10.9243 20.9303 10.9243C21.3403 10.9243 21.6703 11.2543 21.6703 11.6643C21.6703 12.7843 20.8703 14.0243 19.8403 14.4843L13.1003 17.4843C12.7603 17.6343 12.3803 17.7143 12.0003 17.7143Z" fill="#003366"/>
<path d="M12.0003 22.6743C11.6203 22.6743 11.2403 22.5943 10.8903 22.4443L4.15031 19.4443C3.04031 18.9543 2.32031 17.8443 2.32031 16.6243C2.32031 16.2143 2.65031 15.8843 3.06031 15.8843C3.47031 15.8843 3.80031 16.2143 3.80031 16.6243C3.80031 17.2543 4.17031 17.8243 4.75031 18.0843L11.4903 21.0843C11.8103 21.2243 12.1803 21.2243 12.5003 21.0843L19.2403 18.0843C19.8103 17.8343 20.1903 17.2543 20.1903 16.6243C20.1903 16.2143 20.5203 15.8843 20.9303 15.8843C21.3403 15.8843 21.6703 16.2143 21.6703 16.6243C21.6703 17.8443 20.9503 18.9443 19.8403 19.4443L13.1003 22.4443C12.7603 22.5943 12.3803 22.6743 12.0003 22.6743Z" fill="#003366"/>
</svg>
