<svg width="24" height="25" viewBox="0 0 24 25" fill="none" xmlns="http://www.w3.org/2000/svg">
<path d="M13.0095 3.59414L18.9095 6.21414C20.6095 6.96414 20.6095 8.20414 18.9095 8.95414L13.0095 11.5741C12.3395 11.8741 11.2395 11.8741 10.5695 11.5741L4.66953 8.95414C2.96953 8.20414 2.96953 6.96414 4.66953 6.21414L10.5695 3.59414C11.2395 3.29414 12.3395 3.29414 13.0095 3.59414Z" stroke="white" stroke-width="1.5" stroke-linecap="round" stroke-linejoin="round"/>
<path d="M3 11.6743C3 12.5143 3.63 13.4843 4.4 13.8243L11.19 16.8443C11.71 17.0743 12.3 17.0743 12.81 16.8443L19.6 13.8243C20.37 13.4843 21 12.5143 21 11.6743" stroke="white" stroke-width="1.5" stroke-linecap="round" stroke-linejoin="round"/>
<path d="M3 16.6743C3 17.6043 3.55 18.4443 4.4 18.8243L11.19 21.8443C11.71 22.0743 12.3 22.0743 12.81 21.8443L19.6 18.8243C20.45 18.4443 21 17.6043 21 16.6743" stroke="white" stroke-width="1.5" stroke-linecap="round" stroke-linejoin="round"/>
</svg>
