<svg width="24" height="24" viewBox="0 0 24 24" fill="none" xmlns="http://www.w3.org/2000/svg">
<path d="M17.002 3.5H7.00195C4.00195 3.5 2.00195 5 2.00195 8.5V15.5C2.00195 19 4.00195 20.5 7.00195 20.5H17.002C20.002 20.5 22.002 19 22.002 15.5V8.5C22.002 5 20.002 3.5 17.002 3.5ZM6.25195 14.5C6.25195 14.91 5.91195 15.25 5.50195 15.25C5.09195 15.25 4.75195 14.91 4.75195 14.5V9.5C4.75195 9.09 5.09195 8.75 5.50195 8.75C5.91195 8.75 6.25195 9.09 6.25195 9.5V14.5ZM12.002 15C10.342 15 9.00195 13.66 9.00195 12C9.00195 10.34 10.342 9 12.002 9C13.662 9 15.002 10.34 15.002 12C15.002 13.66 13.662 15 12.002 15ZM19.252 14.5C19.252 14.91 18.912 15.25 18.502 15.25C18.092 15.25 17.752 14.91 17.752 14.5V9.5C17.752 9.09 18.092 8.75 18.502 8.75C18.912 8.75 19.252 9.09 19.252 9.5V14.5Z" fill="#0DB855"/>
</svg>
