<svg width="24" height="25" viewBox="0 0 24 25" fill="none" xmlns="http://www.w3.org/2000/svg">
<path d="M22 11.5738V4.77383C22 3.27383 21.36 2.67383 19.77 2.67383H15.73C14.14 2.67383 13.5 3.27383 13.5 4.77383V11.5738C13.5 13.0738 14.14 13.6738 15.73 13.6738H19.77C21.36 13.6738 22 13.0738 22 11.5738Z" stroke="white" stroke-width="1.5" stroke-linecap="round" stroke-linejoin="round"/>
<path d="M22 20.5738V18.7738C22 17.2738 21.36 16.6738 19.77 16.6738H15.73C14.14 16.6738 13.5 17.2738 13.5 18.7738V20.5738C13.5 22.0738 14.14 22.6738 15.73 22.6738H19.77C21.36 22.6738 22 22.0738 22 20.5738Z" stroke="white" stroke-width="1.5" stroke-linecap="round" stroke-linejoin="round"/>
<path d="M10.5 13.7738V20.5738C10.5 22.0738 9.86 22.6738 8.27 22.6738H4.23C2.64 22.6738 2 22.0738 2 20.5738V13.7738C2 12.2738 2.64 11.6738 4.23 11.6738H8.27C9.86 11.6738 10.5 12.2738 10.5 13.7738Z" stroke="white" stroke-width="1.5" stroke-linecap="round" stroke-linejoin="round"/>
<path d="M10.5 4.77383V6.57383C10.5 8.07383 9.86 8.67383 8.27 8.67383H4.23C2.64 8.67383 2 8.07383 2 6.57383V4.77383C2 3.27383 2.64 2.67383 4.23 2.67383H8.27C9.86 2.67383 10.5 3.27383 10.5 4.77383Z" stroke="white" stroke-width="1.5" stroke-linecap="round" stroke-linejoin="round"/>
</svg>
