<svg width="24" height="24" viewBox="0 0 24 24" fill="none" xmlns="http://www.w3.org/2000/svg">
<path d="M17.6005 5.30979L11.9505 2.26979C11.3505 1.94979 10.6405 1.94979 10.0405 2.26979L4.40047 5.30979C3.99047 5.53979 3.73047 5.97978 3.73047 6.45978C3.73047 6.94979 3.98047 7.38979 4.40047 7.60979L10.0505 10.6498C10.3505 10.8098 10.6805 10.8898 11.0005 10.8898C11.3205 10.8898 11.6605 10.8098 11.9505 10.6498L17.6005 7.60979C18.0105 7.38979 18.2705 6.94979 18.2705 6.45978C18.2705 5.97978 18.0105 5.53979 17.6005 5.30979Z" fill="#D46B49"/>
<path d="M9.12 11.7096L3.87 9.0896C3.46 8.8796 3 8.9096 2.61 9.1396C2.23 9.3796 2 9.7896 2 10.2396V15.1996C2 16.0596 2.48 16.8296 3.25 17.2196L8.5 19.8396C8.68 19.9296 8.88 19.9796 9.08 19.9796C9.31 19.9796 9.55 19.9096 9.76 19.7896C10.14 19.5496 10.37 19.1396 10.37 18.6896V13.7296C10.36 12.8696 9.88 12.0996 9.12 11.7096Z" fill="#D46B49"/>
<path d="M20.0006 10.2396V12.6996C19.5206 12.5596 19.0106 12.4996 18.5006 12.4996C17.1406 12.4996 15.8106 12.9696 14.7606 13.8096C13.3206 14.9396 12.5006 16.6496 12.5006 18.4996C12.5006 18.9896 12.5606 19.4796 12.6906 19.9496C12.5406 19.9296 12.3906 19.8696 12.2506 19.7796C11.8706 19.5496 11.6406 19.1396 11.6406 18.6896V13.7296C11.6406 12.8696 12.1206 12.0996 12.8806 11.7096L18.1306 9.0896C18.5406 8.8796 19.0006 8.9096 19.3906 9.1396C19.7706 9.3796 20.0006 9.7896 20.0006 10.2396Z" fill="#D46B49"/>
<path d="M21.98 15.65C21.16 14.64 19.91 14 18.5 14C17.44 14 16.46 14.37 15.69 14.99C14.65 15.81 14 17.08 14 18.5C14 19.91 14.64 21.16 15.65 21.98C16.42 22.62 17.42 23 18.5 23C19.64 23 20.67 22.57 21.47 21.88C22.4 21.05 23 19.85 23 18.5C23 17.42 22.62 16.42 21.98 15.65ZM19.53 18.78C19.53 19.04 19.39 19.29 19.17 19.42L17.76 20.26C17.64 20.33 17.51 20.37 17.37 20.37C17.12 20.37 16.87 20.24 16.73 20.01C16.52 19.65 16.63 19.19 16.99 18.98L18.03 18.36V17.1C18.03 16.69 18.37 16.35 18.78 16.35C19.19 16.35 19.53 16.69 19.53 17.1V18.78Z" fill="#D46B49"/>
</svg>
