<svg width="24" height="25" viewBox="0 0 24 25" fill="none" xmlns="http://www.w3.org/2000/svg">
<path d="M21.5 11.5743V4.77432C21.5 3.27432 20.86 2.67432 19.27 2.67432H15.23C13.64 2.67432 13 3.27432 13 4.77432V11.5743C13 13.0743 13.64 13.6743 15.23 13.6743H19.27C20.86 13.6743 21.5 13.0743 21.5 11.5743Z" fill="#003366"/>
<path d="M11 13.7743V20.5743C11 22.0743 10.36 22.6743 8.77 22.6743H4.73C3.14 22.6743 2.5 22.0743 2.5 20.5743V13.7743C2.5 12.2743 3.14 11.6743 4.73 11.6743H8.77C10.36 11.6743 11 12.2743 11 13.7743Z" fill="#003366"/>
<path d="M21.5 20.5743V17.7743C21.5 16.2743 20.86 15.6743 19.27 15.6743H15.23C13.64 15.6743 13 16.2743 13 17.7743V20.5743C13 22.0743 13.64 22.6743 15.23 22.6743H19.27C20.86 22.6743 21.5 22.0743 21.5 20.5743Z" fill="#003366"/>
<path d="M11 7.57432V4.77432C11 3.27432 10.36 2.67432 8.77 2.67432H4.73C3.14 2.67432 2.5 3.27432 2.5 4.77432V7.57432C2.5 9.07432 3.14 9.67432 4.73 9.67432H8.77C10.36 9.67432 11 9.07432 11 7.57432Z" fill="#003366"/>
</svg>
