<svg width="20" height="19" viewBox="0 0 20 19" fill="none" xmlns="http://www.w3.org/2000/svg">
<path d="M17.8305 6.37363L13.3005 1.84363C12.3505 0.893633 11.0405 0.383633 9.70046 0.453633L4.70046 0.693633C2.70046 0.783633 1.11046 2.37363 1.01046 4.36363L0.770463 9.36363C0.710463 10.7036 1.21046 12.0136 2.16046 12.9636L6.69046 17.4936C8.55046 19.3536 11.5705 19.3536 13.4405 17.4936L17.8305 13.1036C19.7005 11.2536 19.7005 8.23363 17.8305 6.37363ZM7.50046 10.0536C5.91046 10.0536 4.62046 8.76363 4.62046 7.17363C4.62046 5.58363 5.91046 4.29363 7.50046 4.29363C9.09046 4.29363 10.3805 5.58363 10.3805 7.17363C10.3805 8.76363 9.09046 10.0536 7.50046 10.0536Z" fill="#003366"/>
</svg>
