<svg width="24" height="25" viewBox="0 0 24 25" fill="none" xmlns="http://www.w3.org/2000/svg">
<path d="M12 15.6743C13.6569 15.6743 15 14.3312 15 12.6743C15 11.0175 13.6569 9.67432 12 9.67432C10.3431 9.67432 9 11.0175 9 12.6743C9 14.3312 10.3431 15.6743 12 15.6743Z" stroke="white" stroke-width="1.5" stroke-miterlimit="10" stroke-linecap="round" stroke-linejoin="round"/>
<path d="M2 13.5543V11.7943C2 10.7543 2.85 9.89425 3.9 9.89425C5.71 9.89425 6.45 8.61425 5.54 7.04425C5.02 6.14425 5.33 4.97425 6.24 4.45425L7.97 3.46425C8.76 2.99425 9.78 3.27425 10.25 4.06425L10.36 4.25425C11.26 5.82425 12.74 5.82425 13.65 4.25425L13.76 4.06425C14.23 3.27425 15.25 2.99425 16.04 3.46425L17.77 4.45425C18.68 4.97425 18.99 6.14425 18.47 7.04425C17.56 8.61425 18.3 9.89425 20.11 9.89425C21.15 9.89425 22.01 10.7443 22.01 11.7943V13.5543C22.01 14.5943 21.16 15.4543 20.11 15.4543C18.3 15.4543 17.56 16.7343 18.47 18.3043C18.99 19.2143 18.68 20.3743 17.77 20.8943L16.04 21.8843C15.25 22.3543 14.23 22.0743 13.76 21.2843L13.65 21.0943C12.75 19.5243 11.27 19.5243 10.36 21.0943L10.25 21.2843C9.78 22.0743 8.76 22.3543 7.97 21.8843L6.24 20.8943C5.33 20.3743 5.02 19.2043 5.54 18.3043C6.45 16.7343 5.71 15.4543 3.9 15.4543C2.85 15.4543 2 14.5943 2 13.5543Z" stroke="white" stroke-width="1.5" stroke-miterlimit="10" stroke-linecap="round" stroke-linejoin="round"/>
</svg>
