<svg width="20" height="20" viewBox="0 0 20 20" fill="none" xmlns="http://www.w3.org/2000/svg">
<path d="M18.1 6.89425C16.29 6.89425 15.55 5.61425 16.45 4.04425C16.97 3.13425 16.66 1.97425 15.75 1.45425L14.02 0.464253C13.23 -0.00574714 12.21 0.274253 11.74 1.06425L11.63 1.25425C10.73 2.82425 9.25 2.82425 8.34 1.25425L8.23 1.06425C7.78 0.274253 6.76 -0.00574714 5.97 0.464253L4.24 1.45425C3.33 1.97425 3.02 3.14425 3.54 4.05425C4.45 5.61425 3.71 6.89425 1.9 6.89425C0.86 6.89425 0 7.74425 0 8.79425V10.5543C0 11.5943 0.85 12.4543 1.9 12.4543C3.71 12.4543 4.45 13.7343 3.54 15.3043C3.02 16.2143 3.33 17.3743 4.24 17.8943L5.97 18.8843C6.76 19.3543 7.78 19.0743 8.25 18.2843L8.36 18.0943C9.26 16.5243 10.74 16.5243 11.65 18.0943L11.76 18.2843C12.23 19.0743 13.25 19.3543 14.04 18.8843L15.77 17.8943C16.68 17.3743 16.99 16.2043 16.47 15.3043C15.56 13.7343 16.3 12.4543 18.11 12.4543C19.15 12.4543 20.01 11.6043 20.01 10.5543V8.79425C20 7.75425 19.15 6.89425 18.1 6.89425ZM10 12.9243C8.21 12.9243 6.75 11.4643 6.75 9.67425C6.75 7.88425 8.21 6.42425 10 6.42425C11.79 6.42425 13.25 7.88425 13.25 9.67425C13.25 11.4643 11.79 12.9243 10 12.9243Z" fill="#003366"/>
</svg>
