<svg width="20" height="18" viewBox="0 0 20 18" fill="none" xmlns="http://www.w3.org/2000/svg">
<path d="M15 0.173828H5C2 0.173828 0 1.67383 0 5.17383V12.1738C0 15.6738 2 17.1738 5 17.1738H15C18 17.1738 20 15.6738 20 12.1738V5.17383C20 1.67383 18 0.173828 15 0.173828ZM15.47 6.26383L12.34 8.76383C11.68 9.29383 10.84 9.55383 10 9.55383C9.16 9.55383 8.31 9.29383 7.66 8.76383L4.53 6.26383C4.21 6.00383 4.16 5.52383 4.41 5.20383C4.67 4.88383 5.14 4.82383 5.46 5.08383L8.59 7.58383C9.35 8.19383 10.64 8.19383 11.4 7.58383L14.53 5.08383C14.85 4.82383 15.33 4.87383 15.58 5.20383C15.84 5.52383 15.79 6.00383 15.47 6.26383Z" fill="#003366"/>
</svg>
