<svg width="24" height="25" viewBox="0 0 24 25" fill="none" xmlns="http://www.w3.org/2000/svg">
<path d="M4.17038 15.9746L8.70038 20.5046C10.5604 22.3646 13.5804 22.3646 15.4504 20.5046L19.8404 16.1146C21.7004 14.2546 21.7004 11.2346 19.8404 9.36461L15.3004 4.84461C14.3504 3.89461 13.0404 3.38461 11.7004 3.45461L6.70038 3.69461C4.70038 3.78461 3.11038 5.37461 3.01038 7.36461L2.77038 12.3646C2.71038 13.7146 3.22038 15.0246 4.17038 15.9746Z" stroke="white" stroke-width="1.5" stroke-linecap="round" stroke-linejoin="round"/>
<path d="M9.5 12.6743C10.8807 12.6743 12 11.555 12 10.1743C12 8.7936 10.8807 7.67432 9.5 7.67432C8.11929 7.67432 7 8.7936 7 10.1743C7 11.555 8.11929 12.6743 9.5 12.6743Z" stroke="white" stroke-width="1.5" stroke-linecap="round"/>
</svg>
