<svg width="25" height="25" viewBox="0 0 25 25" fill="none" xmlns="http://www.w3.org/2000/svg">
<path d="M21.5 6.47998C18.17 6.14998 14.82 5.97998 11.48 5.97998C9.5 5.97998 7.52 6.07998 5.54 6.27998L3.5 6.47998" stroke="#E70C10" stroke-width="1.5" stroke-linecap="round" stroke-linejoin="round"/>
<path d="M9 5.47L9.22 4.16C9.38 3.21 9.5 2.5 11.19 2.5H13.81C15.5 2.5 15.63 3.25 15.78 4.17L16 5.47" stroke="#E70C10" stroke-width="1.5" stroke-linecap="round" stroke-linejoin="round"/>
<path d="M19.3504 9.64014L18.7004 19.7101C18.5904 21.2801 18.5004 22.5001 15.7104 22.5001H9.29039C6.50039 22.5001 6.41039 21.2801 6.30039 19.7101L5.65039 9.64014" stroke="#E70C10" stroke-width="1.5" stroke-linecap="round" stroke-linejoin="round"/>
<path d="M10.8301 17H14.1601" stroke="#E70C10" stroke-width="1.5" stroke-linecap="round" stroke-linejoin="round"/>
<path d="M10 13H15" stroke="#E70C10" stroke-width="1.5" stroke-linecap="round" stroke-linejoin="round"/>
</svg>
