<svg width="20" height="20" viewBox="0 0 20 20" fill="none" xmlns="http://www.w3.org/2000/svg">
<path d="M15.02 0.88C14.54 0.4 13.58 0 12.9 0H7.1C6.42 0 5.46 0.4 4.98 0.88L0.88 4.98C0.4 5.46 0 6.42 0 7.1V12.9C0 13.58 0.4 14.54 0.88 15.02L2.41 16.55L16.55 2.41L15.02 0.88Z" fill="#E70C10"/>
<path d="M19.1207 4.98022L17.6107 3.47021L3.4707 17.6102L4.9807 19.1202C5.4607 19.6002 6.4207 20.0002 7.1007 20.0002H12.9007C13.5807 20.0002 14.5407 19.6002 15.0207 19.1202L19.1207 15.0202C19.6007 14.5402 20.0007 13.5802 20.0007 12.9002V7.10022C20.0007 6.42022 19.6007 5.46022 19.1207 4.98022Z" fill="#E70C10"/>
<path d="M0.490938 18.4698C0.200938 18.7598 0.200938 19.2398 0.490938 19.5298C0.640938 19.6798 0.830937 19.7498 1.02094 19.7498C1.21094 19.7498 1.40094 19.6798 1.55094 19.5298L3.47094 17.6098L2.41094 16.5498L0.490938 18.4698Z" fill="#E70C10"/>
<path d="M19.5308 1.54996C19.8208 1.25996 19.8208 0.779961 19.5308 0.489961C19.2408 0.199961 18.7608 0.199961 18.4708 0.489961L16.5508 2.40996L17.6108 3.46996L19.5308 1.54996Z" fill="#E70C10"/>
</svg>
