<svg width="20" height="20" viewBox="0 0 20 20" fill="none" xmlns="http://www.w3.org/2000/svg">
<path d="M19.5609 8.74006L18.2009 7.16006C17.9409 6.86006 17.7309 6.30006 17.7309 5.90006V4.20006C17.7309 3.14006 16.8609 2.27006 15.8009 2.27006H14.1009C13.7109 2.27006 13.1409 2.06006 12.8409 1.80006L11.2609 0.440059C10.5709 -0.149941 9.44086 -0.149941 8.74086 0.440059L7.17086 1.81006C6.87086 2.06006 6.30086 2.27006 5.91086 2.27006H4.18086C3.12086 2.27006 2.25086 3.14006 2.25086 4.20006V5.91006C2.25086 6.30006 2.04086 6.86006 1.79086 7.16006L0.440859 8.75006C-0.139141 9.44006 -0.139141 10.5601 0.440859 11.2501L1.79086 12.8401C2.04086 13.1401 2.25086 13.7001 2.25086 14.0901V15.8001C2.25086 16.8601 3.12086 17.7301 4.18086 17.7301H5.91086C6.30086 17.7301 6.87086 17.9401 7.17086 18.2001L8.75086 19.5601C9.44086 20.1501 10.5709 20.1501 11.2709 19.5601L12.8509 18.2001C13.1509 17.9401 13.7109 17.7301 14.1109 17.7301H15.8109C16.8709 17.7301 17.7409 16.8601 17.7409 15.8001V14.1001C17.7409 13.7101 17.9509 13.1401 18.2109 12.8401L19.5709 11.2601C20.1509 10.5701 20.1509 9.43006 19.5609 8.74006ZM14.1609 8.11006L9.33086 12.9401C9.19086 13.0801 9.00086 13.1601 8.80086 13.1601C8.60086 13.1601 8.41086 13.0801 8.27086 12.9401L5.85086 10.5201C5.56086 10.2301 5.56086 9.75006 5.85086 9.46006C6.14086 9.17006 6.62086 9.17006 6.91086 9.46006L8.80086 11.3501L13.1009 7.05006C13.3909 6.76006 13.8709 6.76006 14.1609 7.05006C14.4509 7.34006 14.4509 7.82006 14.1609 8.11006Z" fill="#FFC107"/>
</svg>
