<svg width="20" height="20" viewBox="0 0 20 20" fill="none" xmlns="http://www.w3.org/2000/svg">
<path d="M17.8305 6.6998L13.3005 2.1698C12.3505 1.2198 11.0405 0.709805 9.70046 0.779805L4.70046 1.0198C2.70046 1.1098 1.11046 2.6998 1.01046 4.6898L0.770463 9.6898C0.710463 11.0298 1.21046 12.3398 2.16046 13.2898L6.69046 17.8198C8.55046 19.6798 11.5705 19.6798 13.4405 17.8198L17.8305 13.4298C19.7005 11.5798 19.7005 8.5598 17.8305 6.6998ZM7.50046 10.3798C5.91046 10.3798 4.62046 9.0898 4.62046 7.4998C4.62046 5.9098 5.91046 4.6198 7.50046 4.6198C9.09046 4.6198 10.3805 5.9098 10.3805 7.4998C10.3805 9.0898 9.09046 10.3798 7.50046 10.3798Z" fill="#7B61FF"/>
</svg>
